<svg width="29" height="26" viewBox="0 0 29 26" fill="none" xmlns="http://www.w3.org/2000/svg">
<g clip-path="url(#clip0_64_34)">
<path d="M6.76655 0.5V8.83333M22.2332 0.5V8.83333M2.89989 4.66667H26.0999C26.6126 4.66667 27.1044 4.84226 27.467 5.15482C27.8295 5.46738 28.0332 5.89131 28.0332 6.33333V23C28.0332 23.442 27.8295 23.8659 27.467 24.1785C27.1044 24.4911 26.6126 24.6667 26.0999 24.6667H2.89989C2.38713 24.6667 1.89538 24.4911 1.53281 24.1785C1.17024 23.8659 0.966553 23.442 0.966553 23V6.33333C0.966553 5.89131 1.17024 5.46738 1.53281 5.15482C1.89538 4.84226 2.38713 4.66667 2.89989 4.66667Z" stroke="black"/>
</g>
<defs>
<clipPath id="clip0_64_34">
<rect width="29" height="25" fill="white" transform="translate(0 0.5)"/>
</clipPath>
</defs>
</svg>
