<svg width="30" height="32" viewBox="0 0 30 32" fill="none" xmlns="http://www.w3.org/2000/svg">
<path d="M5.76875 26.6666C5.19375 26.6666 4.71375 26.4613 4.32875 26.0506C3.94375 25.6399 3.75083 25.1275 3.75 24.5133V11.4866C3.75 10.8733 3.94292 10.3613 4.32875 9.95059C4.71458 9.53992 5.19458 9.33414 5.76875 9.33325H11.25V7.48659C11.25 6.87325 11.4429 6.36125 11.8288 5.95059C12.2146 5.53992 12.6946 5.33414 13.2687 5.33325H16.7313C17.3063 5.33325 17.7867 5.53903 18.1725 5.95059C18.5583 6.36214 18.7508 6.87414 18.75 7.48659V9.33325H24.2313C24.8062 9.33325 25.2863 9.53903 25.6713 9.95059C26.0563 10.3621 26.2492 10.8741 26.25 11.4866V24.5133C26.25 25.1266 26.0575 25.6386 25.6725 26.0493C25.2875 26.4599 24.8071 26.6657 24.2313 26.6666H5.76875ZM5.76875 25.3333H24.2313C24.4229 25.3333 24.5992 25.2479 24.76 25.0773C24.9208 24.9066 25.0008 24.7186 25 24.5133V11.4866C25 11.2821 24.92 11.0941 24.76 10.9226C24.6 10.751 24.4237 10.6657 24.2313 10.6666H5.76875C5.57708 10.6666 5.40083 10.7519 5.24 10.9226C5.07917 11.0933 4.99917 11.2813 5 11.4866V24.5133C5 24.7177 5.08 24.9057 5.24 25.0773C5.4 25.2488 5.57625 25.3341 5.76875 25.3333ZM12.5 9.33325H17.5V7.48659C17.5 7.28214 17.42 7.09414 17.26 6.92259C17.1 6.75103 16.9237 6.6657 16.7313 6.66659H13.2687C13.0771 6.66659 12.9008 6.75192 12.74 6.92259C12.5792 7.09325 12.4992 7.28125 12.5 7.48659V9.33325Z" fill="black"/>
</svg>
