<svg width="27" height="28" viewBox="0 0 27 28" fill="none" xmlns="http://www.w3.org/2000/svg">
<g clip-path="url(#clip0_64_65)">
<path d="M25.2825 13.4478L14.0325 1.7811C13.892 1.63624 13.7019 1.55493 13.5038 1.55493C13.3056 1.55493 13.1155 1.63624 12.975 1.7811L1.72502 13.4478C1.60215 13.5966 1.53795 13.788 1.54524 13.9837C1.55253 14.1794 1.63078 14.3651 1.76435 14.5037C1.89792 14.6422 2.07697 14.7233 2.26573 14.7309C2.45449 14.7384 2.63904 14.6719 2.78252 14.5444L13.5 3.42999L24.2175 14.5522C24.361 14.6796 24.5456 14.7462 24.7343 14.7387C24.9231 14.7311 25.1021 14.6499 25.2357 14.5114C25.3693 14.3729 25.4475 14.1872 25.4548 13.9915C25.4621 13.7957 25.3979 13.6043 25.275 13.4555L25.2825 13.4478Z" fill="black"/>
<path d="M21 24.8888H17.25V17.111H9.75V24.8888H6V13.9999L4.5 15.5555V24.8888C4.5 25.3013 4.65804 25.697 4.93934 25.9887C5.22064 26.2805 5.60218 26.4443 6 26.4443H11.25V18.6666H15.75V26.4443H21C21.3978 26.4443 21.7794 26.2805 22.0607 25.9887C22.342 25.697 22.5 25.3013 22.5 24.8888V15.3688L21 13.8132V24.8888Z" fill="black"/>
</g>
<defs>
<clipPath id="clip0_64_65">
<rect width="27" height="28" fill="white"/>
</clipPath>
</defs>
</svg>
