<svg width="31" height="31" viewBox="0 0 31 31" fill="none" xmlns="http://www.w3.org/2000/svg">
<path d="M11.9124 14.6668C12.0329 15.205 12.4269 15.2718 13.0942 14.8671L15.4967 13.4139L18.009 14.9381C18.5601 15.2955 18.9196 15.205 19.0876 14.6668M11.9124 11.8252C12.0329 12.3634 12.4269 12.4301 13.0942 12.0254L15.4967 10.5723L18.009 12.0964C18.5601 12.4538 18.9196 12.3634 19.0876 11.8252" stroke="black" stroke-linecap="round" stroke-linejoin="round"/>
<path d="M19.0876 3.63596V17.5666C18.9196 18.1048 18.5601 18.193 18.009 17.8314L15.4967 16.3072L13.0942 17.7603C12.4269 18.1694 12.0329 18.1048 11.9124 17.5666V3.552" stroke="black" stroke-linecap="round" stroke-linejoin="round"/>
<path d="M22.927 3.552H8.07284C5.57605 3.552 3.552 5.57605 3.552 8.07283V22.927C3.552 25.4238 5.57605 27.4478 8.07284 27.4478H22.927C25.4238 27.4478 27.4478 25.4238 27.4478 22.927V8.07283C27.4478 5.57605 25.4238 3.552 22.927 3.552Z" stroke="black" stroke-linecap="round" stroke-linejoin="round"/>
</svg>
