<svg width="43" height="42" viewBox="0 0 43 42" fill="none" xmlns="http://www.w3.org/2000/svg">
<path d="M12.9359 25.3225L17.3613 21L12.9359 16.6775C12.759 16.5171 12.6297 16.313 12.5616 16.0868C12.4935 15.8606 12.4891 15.6207 12.5489 15.3923C12.6087 15.1639 12.7305 14.9554 12.9014 14.7889C13.0723 14.6224 13.286 14.504 13.52 14.4462C13.7536 14.3879 13.9989 14.3921 14.2303 14.4583C14.4617 14.5245 14.6706 14.6503 14.8351 14.8225L20.2101 20.0725C20.4617 20.3186 20.6031 20.6522 20.6031 21C20.6031 21.3478 20.4617 21.6814 20.2101 21.9275L14.8351 27.1775C14.5804 27.4096 14.2434 27.5361 13.8951 27.5302C13.5468 27.5243 13.2145 27.3866 12.9682 27.146C12.7219 26.9054 12.5808 26.5808 12.5748 26.2406C12.5688 25.9004 12.6983 25.5712 12.9359 25.3225Z" fill="black"/>
<path d="M6.71867 3.5H36.2812C38.0119 3.5 39.4166 4.872 39.4166 6.5625V35.4375C39.4166 36.2497 39.0862 37.0287 38.4982 37.603C37.9102 38.1773 37.1127 38.5 36.2812 38.5H6.71867C5.8871 38.5 5.0896 38.1773 4.50159 37.603C3.91359 37.0287 3.58325 36.2497 3.58325 35.4375V6.5625C3.58325 4.872 4.98792 3.5 6.71867 3.5ZM6.27075 6.5625V35.4375C6.27075 35.679 6.47142 35.875 6.71867 35.875H26.8749V6.125H6.71867C6.59987 6.125 6.48594 6.17109 6.40194 6.25314C6.31794 6.33519 6.27075 6.44647 6.27075 6.5625ZM29.5624 35.875H36.2812C36.4 35.875 36.5139 35.8289 36.5979 35.7469C36.6819 35.6648 36.7291 35.5535 36.7291 35.4375V6.5625C36.7291 6.44647 36.6819 6.33519 36.5979 6.25314C36.5139 6.17109 36.4 6.125 36.2812 6.125H29.5624V35.875Z" fill="black"/>
</svg>
