<svg width="32" height="28" viewBox="0 0 32 28" fill="none" xmlns="http://www.w3.org/2000/svg">
<path d="M12.8477 25C11.7281 24.7515 10.6526 24.3422 9.65657 23.7856M17.9947 3C20.553 3.56908 22.8371 4.96726 24.4731 6.96562C26.1091 8.96399 27 11.4441 27 14C27 16.5559 26.1091 19.036 24.4731 21.0344C22.8371 23.0327 20.553 24.4309 17.9947 25M5.87223 20.3829C5.17106 19.3893 4.63802 18.2925 4.29338 17.1344M4 12.1201C4.20588 10.9295 4.6022 9.80153 5.15808 8.76757L5.37554 8.38532M8.86779 4.69944C10.0724 3.89343 11.4229 3.3168 12.8477 3" stroke="black" stroke-width="2" stroke-linecap="round" stroke-linejoin="round"/>
</svg>
