<svg width="30" height="27" viewBox="0 0 30 27" fill="none" xmlns="http://www.w3.org/2000/svg">
<path d="M29 26.6L21 19.4M13 23C11.4241 23 9.86371 22.7207 8.4078 22.1779C6.95189 21.6352 5.62902 20.8397 4.51472 19.8368C3.40042 18.8339 2.5165 17.6433 1.91345 16.333C1.31039 15.0227 1 13.6183 1 12.2C1 10.7817 1.31039 9.37736 1.91345 8.06704C2.5165 6.75673 3.40042 5.56614 4.51472 4.56327C5.62902 3.5604 6.95189 2.76488 8.4078 2.22213C9.86371 1.67937 11.4241 1.40002 13 1.40002C16.1826 1.40002 19.2348 2.53788 21.4853 4.56327C23.7357 6.58866 25 9.33569 25 12.2C25 15.0644 23.7357 17.8114 21.4853 19.8368C19.2348 21.8622 16.1826 23 13 23Z" stroke="black"/>
</svg>
