<svg width="26" height="28" viewBox="0 0 26 28" fill="none" xmlns="http://www.w3.org/2000/svg">
<path d="M13.1788 9.14072L14.5872 7.62405C15.2863 6.84628 15.6736 5.80373 15.6654 4.72126C15.6572 3.63879 15.2543 2.60314 14.5435 1.8377C13.8328 1.07225 12.8711 0.638338 11.866 0.62955C10.8608 0.620762 9.89272 1.0378 9.1705 1.79072L7.76216 3.30739C7.28875 3.81722 6.71133 4.20222 6.07433 4.43089L3.79175 5.24989V5.54155L11.1042 13.4166H11.3751L12.1367 10.9584C12.3479 10.2736 12.7054 9.65172 13.1788 9.14072ZM13.1788 9.14072L13.2926 9.33322C14.5819 11.747 16.6506 13.5658 19.1047 14.4432M19.1047 14.4432C19.2561 14.0836 19.5149 13.7898 19.841 13.6094C20.1671 13.429 20.5403 13.3726 20.8999 13.4495C21.2595 13.5264 21.5844 13.732 21.8218 14.0329C22.0592 14.3337 22.1952 14.7122 22.2076 15.1068C22.22 15.5014 22.1081 15.889 21.8901 16.2064C21.6722 16.5239 21.3609 16.7527 21.0069 16.8556C20.653 16.9584 20.2771 16.9294 19.9404 16.7731C19.6037 16.6169 19.326 16.3426 19.1523 15.9949C16.6911 17.1151 14.6729 19.1299 13.4497 21.6882C13.1225 22.3742 13.0001 23.1466 13.0001 23.9166M19.1047 14.4432C19.0007 14.6882 18.9497 14.9558 18.958 15.2251C18.9663 15.4943 19.0324 15.7578 19.1512 15.9949M7.04175 12.2499C6.89948 12.4031 6.73059 12.5246 6.54471 12.6075C6.35883 12.6905 6.15961 12.7331 5.95841 12.7331C5.55209 12.7331 5.1624 12.5593 4.87508 12.2499C4.73282 12.0967 4.61997 11.9148 4.54297 11.7146C4.46598 11.5144 4.42635 11.2999 4.42635 11.0832C4.42635 10.6456 4.58776 10.226 4.87508 9.91655M14.5872 1.79189L15.8167 0.466553M13.0001 23.9166C18.9584 23.9166 22.2084 26.2499 22.2084 26.2499V27.4166H3.79175V26.2499C3.79175 26.2499 7.04175 23.9166 13.0001 23.9166Z" stroke="black"/>
</svg>
